Coordinates
version=1
nRows=6
nColumns=46
inDegrees=yes

Units are S.I. units (second, meters, Newtons, ...)
Angles are in degrees.

endheader
time	pelvis_tilt	pelvis_list	pelvis_rotation	pelvis_tx	pelvis_ty	pelvis_tz	bb_angle	bb_tx	bb_ty	bb_tz	hip_flexion_r	hip_adduction_r	hip_rotation_r	knee_angle_r	knee_angle_r_beta	ankle_angle_r	subtalar_angle_r	mtp_angle_r	crank_angle_r	hip_flexion_l	hip_adduction_l	hip_rotation_l	knee_angle_l	knee_angle_l_beta	ankle_angle_l	subtalar_angle_l	mtp_angle_l	crank_angle_l	lumbar_extension	lumbar_bending	lumbar_rotation	arm_flex_r	arm_add_r	arm_rot_r	elbow_flex_r	pro_sup_r	wrist_flex_r	wrist_dev_r	arm_flex_l	arm_add_l	arm_rot_l	elbow_flex_l	pro_sup_l	wrist_flex_l	wrist_dev_l
      0.00500000	    -20.76065658	      0.82143691	      0.83499434	      0.05982136	      1.13780820	     -0.22653965	      0.00000000	      0.50000000	      0.00000000	      0.25000000	     79.77052503	     -2.01964223	      5.35989911	     72.11027157	      1.25856166	      4.27636903	     -9.77753922	      0.00000000	      0.00000000	     58.86818951	     -2.98815145	      2.07366970	     80.29049188	      1.40133344	     18.22884884	     -8.02383804	      0.00000000	      0.00000000	    -61.37896129	      1.24081471	     -0.94613437	     89.22641586	    -10.09896134	     20.83160108	     72.16013980	     29.17095957	      0.00000000	      0.00000000	     89.35920917	    -14.51108152	     23.77250655	     72.16734804	     30.10073615	      0.00000000	      0.00000000
      0.01000000	    -20.85946278	      0.84993472	      0.80651704	      0.05978670	      1.13761325	     -0.22651215	      0.00000000	      0.50000000	      0.00000000	      0.25000000	     79.87592802	     -2.00897703	      5.38919403	     72.08647914	      1.25814641	      4.22604372	     -9.70375206	      0.00000000	      0.00000000	     58.99262689	     -3.00948521	      2.01996013	     80.33609893	      1.40212943	     18.28803683	     -7.94808175	      0.00000000	      0.00000000	    -61.21544666	      1.17590882	     -0.97831533	     89.23708576	    -10.24084268	     21.12725476	     71.77374514	     29.96723984	      0.00000000	      0.00000000	     89.37489667	    -14.59831853	     24.09840875	     71.77234515	     30.82431694	      0.00000000	      0.00000000
      0.01500000	    -20.79965836	      0.83358527	      0.83045301	      0.05974622	      1.13770133	     -0.22658610	      0.00000000	      0.50000000	      0.00000000	      0.25000000	     79.79555200	     -2.03198371	      5.36381660	     72.06791578	      1.25782242	      4.26825786	     -9.74540241	      0.00000000	      0.00000000	     58.94264989	     -2.98603190	      2.06003598	     80.35171561	      1.40240200	     18.26584417	     -7.97325433	      0.00000000	      0.00000000	    -61.30600125	      1.22217440	     -0.94166077	     89.23557689	    -10.20476671	     20.88076903	     71.74806217	     31.03660364	      0.00000000	      0.00000000	     89.36857471	    -14.51173946	     23.81304460	     71.70551151	     31.81673446	      0.00000000	      0.00000000
      0.02000000	    -20.83474439	      0.87458475	      0.81807137	      0.05969526	      1.13748977	     -0.22664305	      0.00000000	      0.50000000	      0.00000000	      0.25000000	     79.85221587	     -2.03837793	      5.43003413	     72.08673470	      1.25815087	      4.26178824	     -9.62163860	      0.00000000	      0.00000000	     59.00135894	     -2.96283099	      2.03227022	     80.40080908	      1.40325884	     18.30134365	     -7.94271502	      0.00000000	      0.00000000	    -61.18636305	      1.21782200	     -1.04597808	     89.24747624	    -10.10340827	     20.86969158	     70.92239923	     33.86610503	      0.00000000	      0.00000000	     89.39366585	    -14.15060125	     23.25011728	     70.69633113	     34.42979120	      0.00000000	      0.00000000
      0.02500000	    -20.97839577	      0.46772287	      0.25211110	      0.05972979	      1.13631124	     -0.22462327	      0.00000000	      0.50000000	      0.00000000	      0.25000000	     80.01587927	     -1.09094473	      5.31318503	     72.09846091	      1.25835553	      4.27183755	     -9.83540703	      0.00000000	      0.00000000	     59.34423504	     -3.04829862	      2.98857206	     80.68148307	      1.40815752	     17.56268434	     -8.11328567	      0.00000000	      0.00000000	    -61.00837993	      1.20893957	     -0.33880238	     89.26892543	     -9.78327984	     21.01980089	     71.06035660	     33.94045809	      0.00000000	      0.00000000	     89.35541305	    -14.31030004	     23.04385671	     70.56039722	     34.42747995	      0.00000000	      0.00000000
      0.03000000	    -21.05998478	      0.03426986	     -0.01006932	      0.05975981	      1.13532547	     -0.22341276	      0.00000000	      0.50000000	      0.00000000	      0.25000000	     80.12512631	     -0.62359861	      4.96164511	     72.07283288	      1.25790823	      4.08370671	     -9.92571311	      0.00000000	      0.00000000	     59.73864809	     -3.37733217	      3.45521814	     81.03049122	      1.41424887	     17.16080920	     -8.42924360	      0.00000000	      0.00000000	    -60.85973457	      1.22876936	      0.15970139	     89.25219809	     -9.72773707	     21.08199911	     71.01310830	     33.97894343	      0.00000000	      0.00000000	     89.33919363	    -14.30885667	     22.95516397	     70.49683272	     34.45489528	      0.00000000	      0.00000000
